<svg width="300" height="300" viewBox="0 0 300 300" fill="none" xmlns="http://www.w3.org/2000/svg">
  <!-- Background -->
  <rect width="300" height="300" fill="#F3F4F6"/>
  
  <!-- Image icon -->
  <path d="M120 110C120 107.239 122.239 105 125 105H175C177.761 105 180 107.239 180 110V160C180 162.761 177.761 165 175 165H125C122.239 165 120 162.761 120 160V110Z" stroke="#9CA3AF" stroke-width="6"/>
  <circle cx="140" cy="125" r="8" fill="#9CA3AF"/>
  <path d="M120 150L135 135L145 145L165 125L180 145V160C180 162.761 177.761 165 175 165H125C122.239 165 120 162.761 120 160V150Z" fill="#D1D5DB"/>
  
  <!-- Text lines -->
  <rect x="110" y="185" width="80" height="12" rx="2" fill="#D1D5DB"/>
  <rect x="120" y="205" width="60" height="8" rx="2" fill="#E5E7EB"/>
</svg> 